<svg aria-hidden="true" style="position: absolute; width: 0; height: 0; overflow: hidden;" version="1.1" xmlns="http://www.w3.org/2000/svg" xmlns:xlink="http://www.w3.org/1999/xlink">
<defs>
<symbol id="yes" viewBox="0 0 45 32">
<path d="M42.19 0.643c-0.383-0.395-0.919-0.64-1.513-0.64s-1.129 0.245-1.512 0.639l-0.001 0-25.617 26.113-9.847-10.039c-0.384-0.395-0.919-0.64-1.513-0.64s-1.129 0.245-1.512 0.639l-0 0c-0.388 0.398-0.627 0.942-0.627 1.542s0.239 1.144 0.628 1.543l-0-0 11.36 11.579c0.384 0.394 0.92 0.639 1.513 0.639s1.129-0.245 1.512-0.638l0-0 27.13-27.655c0.388-0.398 0.627-0.942 0.627-1.542s-0.239-1.144-0.628-1.542l0 0z"></path>
</symbol>
<symbol id="twitter" viewBox="0 0 32 32">
<path stroke-linejoin="round" stroke-linecap="round" stroke-miterlimit="4" stroke-width="2.6667" d="M30.67 4.014c-1.2 0.856-2.591 1.552-4.084 2.013l-0.103 0.027c-1.101-1.261-2.712-2.054-4.508-2.054-3.299 0-5.974 2.675-5.974 5.974 0 0.028 0 0.056 0.001 0.084l-0-0.004v1.333c-0.11 0.003-0.239 0.005-0.368 0.005-4.791 0-9.028-2.37-11.603-6.001l-0.030-0.044s-5.334 12.001 6.667 17.335c-2.442 1.678-5.463 2.679-8.717 2.679-0.217 0-0.433-0.004-0.648-0.013l0.031 0.001c12.001 6.667 26.67 0 26.67-15.335 0-0.371-0.037-0.741-0.107-1.107 1.323-1.305 2.293-2.964 2.759-4.823l0.015-0.071z"></path>
</symbol>
<symbol id="triangle" viewBox="0 0 28 32">
<path d="M26.1 12.894c2.442 1.355 2.442 4.865 0 6.22l-21.162 11.742c-2.369 1.316-5.282-0.398-5.282-3.112v-23.481c0-2.712 2.913-4.424 5.282-3.112l21.162 11.742z"></path>
</symbol>
<symbol id="Stars" viewBox="0 0 188 32">
<path d="M32.407 11.49c-0.108-0.304-0.295-0.558-0.537-0.744l-0.004-0.003c-0.24-0.186-0.538-0.307-0.864-0.334l-0.006-0-9.263-0.724-4.008-8.737c-0.132-0.286-0.337-0.52-0.591-0.684l-0.006-0.004c-0.249-0.16-0.553-0.256-0.879-0.256-0.652 0-1.215 0.381-1.479 0.932l-0.004 0.010-4.008 8.739-9.263 0.724c-0.325 0.026-0.618 0.144-0.859 0.327l0.004-0.003c-0.392 0.29-0.644 0.751-0.644 1.271 0 0.451 0.19 0.859 0.494 1.146l0.001 0.001 6.845 6.57-2.422 10.323c-0.027 0.109-0.043 0.235-0.043 0.364 0 0.545 0.276 1.025 0.697 1.309l0.006 0.004c0.259 0.178 0.579 0.284 0.924 0.284 0.336 0 0.648-0.101 0.908-0.274l-0.006 0.004 8.847-5.809 8.845 5.809c0.254 0.167 0.565 0.267 0.899 0.267 0.36 0 0.693-0.115 0.964-0.311l-0.005 0.003c0.407-0.289 0.669-0.759 0.669-1.29 0-0.157-0.023-0.308-0.065-0.451l0.003 0.011-2.969-10.237 7.368-6.53c0.33-0.292 0.538-0.717 0.538-1.19 0-0.184-0.031-0.362-0.089-0.526l0.003 0.011zM71.401 11.49c-0.108-0.304-0.295-0.558-0.537-0.744l-0.004-0.003c-0.24-0.186-0.54-0.308-0.865-0.334l-0.006-0-9.261-0.724-4.008-8.737c-0.133-0.287-0.338-0.52-0.593-0.684l-0.006-0.004c-0.249-0.16-0.552-0.255-0.878-0.255-0.652 0-1.215 0.38-1.479 0.931l-0.004 0.010-4.008 8.739-9.263 0.724c-0.326 0.026-0.619 0.144-0.861 0.327l0.004-0.003c-0.393 0.29-0.645 0.751-0.645 1.271 0 0.452 0.19 0.859 0.495 1.146l0.001 0.001 6.845 6.57-2.42 10.323c-0.027 0.108-0.042 0.233-0.042 0.36 0 0.208 0.040 0.406 0.113 0.587l-0.004-0.011c0.122 0.306 0.326 0.558 0.585 0.736l0.005 0.004c0.259 0.178 0.579 0.285 0.925 0.285 0.336 0 0.649-0.101 0.909-0.274l-0.006 0.004 8.845-5.809 8.847 5.809c0.254 0.167 0.565 0.267 0.899 0.267 0.36 0 0.693-0.115 0.964-0.311l-0.005 0.003c0.407-0.289 0.669-0.759 0.669-1.29 0-0.157-0.023-0.308-0.065-0.451l0.003 0.011-2.971-10.237 7.37-6.53c0.33-0.292 0.538-0.717 0.538-1.19 0-0.184-0.031-0.362-0.089-0.526l0.003 0.011zM110.388 11.49c-0.108-0.304-0.295-0.558-0.537-0.744l-0.004-0.003c-0.24-0.186-0.54-0.308-0.865-0.334l-0.006-0-9.261-0.724-4.007-8.737c-0.133-0.287-0.338-0.52-0.593-0.684l-0.006-0.004c-0.249-0.16-0.552-0.255-0.878-0.255-0.652 0-1.215 0.38-1.479 0.931l-0.004 0.010-4.009 8.739-9.261 0.724c-0.326 0.026-0.619 0.144-0.861 0.327l0.004-0.003c-0.388 0.295-0.637 0.757-0.637 1.278 0 0.125 0.014 0.247 0.041 0.364l-0.002-0.011c0.069 0.299 0.226 0.572 0.448 0.788l6.845 6.57-2.42 10.323c-0.027 0.11-0.043 0.236-0.043 0.365 0 0.544 0.276 1.024 0.695 1.308l0.006 0.004c0.259 0.178 0.579 0.285 0.924 0.285 0.336 0 0.649-0.101 0.909-0.274l-0.006 0.004 8.845-5.809 8.847 5.809c0.254 0.167 0.565 0.267 0.899 0.267 0.36 0 0.693-0.115 0.964-0.311l-0.005 0.003c0.407-0.289 0.669-0.759 0.669-1.29 0-0.157-0.023-0.308-0.065-0.451l0.003 0.011-2.971-10.237 7.37-6.53c0.33-0.292 0.538-0.717 0.538-1.19 0-0.184-0.031-0.362-0.089-0.526l0.003 0.011zM149.384 11.49c-0.108-0.304-0.295-0.558-0.537-0.744l-0.004-0.003c-0.24-0.186-0.54-0.308-0.865-0.334l-0.006-0-9.261-0.724-4.007-8.737c-0.132-0.286-0.337-0.52-0.591-0.684l-0.006-0.004c-0.249-0.16-0.553-0.256-0.879-0.256-0.652 0-1.215 0.381-1.479 0.932l-0.004 0.010-4.007 8.739-9.263 0.724c-0.326 0.026-0.619 0.144-0.861 0.327l0.004-0.003c-0.393 0.29-0.645 0.751-0.645 1.271 0 0.452 0.19 0.859 0.495 1.146l0.001 0.001 6.845 6.57-2.42 10.323c-0.027 0.11-0.043 0.236-0.043 0.366 0 0.544 0.276 1.024 0.695 1.307l0.006 0.004c0.259 0.178 0.579 0.285 0.924 0.285 0.336 0 0.649-0.101 0.909-0.274l-0.006 0.004 8.847-5.809 8.845 5.809c0.254 0.167 0.565 0.267 0.899 0.267 0.36 0 0.693-0.115 0.964-0.311l-0.005 0.003c0.407-0.289 0.669-0.759 0.669-1.289 0-0.157-0.023-0.309-0.066-0.452l0.003 0.011-2.969-10.237 7.368-6.53c0.33-0.292 0.538-0.717 0.538-1.19 0-0.184-0.031-0.362-0.089-0.526l0.003 0.011zM163.307 19.721l-2.42 10.323c-0.028 0.111-0.044 0.239-0.044 0.371 0 0.544 0.276 1.023 0.695 1.306l0.006 0.004c0.258 0.178 0.578 0.284 0.922 0.284 0.337 0 0.651-0.102 0.912-0.277l-0.006 0.004 8.845-5.809 8.847 5.809c0.253 0.167 0.563 0.266 0.896 0.266 0.704 0 1.304-0.443 1.536-1.066l0.004-0.011c0.057-0.156 0.090-0.337 0.090-0.524 0-0.155-0.022-0.305-0.064-0.447l0.003 0.011-2.971-10.237 7.37-6.53c0.329-0.294 0.535-0.72 0.535-1.194 0-0.182-0.030-0.357-0.087-0.521l0.003 0.011c-0.211-0.602-0.755-1.035-1.405-1.081l-0.005-0-9.263-0.725-4.007-8.737c-0.133-0.287-0.338-0.52-0.593-0.684l-0.006-0.004c-0.248-0.159-0.551-0.254-0.877-0.254-0.652 0-1.216 0.381-1.48 0.932l-0.004 0.010-4.009 8.737-9.261 0.724c-0.326 0.026-0.619 0.144-0.861 0.327l0.004-0.003c-0.389 0.295-0.638 0.758-0.638 1.279 0 0.125 0.014 0.246 0.041 0.362l-0.002-0.011c0.071 0.299 0.228 0.572 0.45 0.788l6.847 6.57zM167.942 12.801c0.304-0.024 0.581-0.129 0.812-0.291l-0.005 0.003c0.235-0.164 0.421-0.384 0.54-0.641l0.004-0.010 2.923-6.369 2.923 6.369c0.124 0.267 0.31 0.486 0.541 0.647l0.005 0.003c0.238 0.165 0.516 0.265 0.805 0.288l6.454 0.503-5.314 4.71c-0.331 0.292-0.538 0.718-0.538 1.191 0 0.156 0.022 0.306 0.064 0.449l-0.003-0.011 2.036 7.016-6.070-3.986c-0.254-0.169-0.565-0.27-0.901-0.27s-0.647 0.101-0.906 0.274l0.006-0.004-6.342 4.164 1.705-7.272c0.027-0.109 0.042-0.233 0.042-0.362 0-0.449-0.188-0.855-0.489-1.142l-0.001-0.001-4.937-4.738 6.644-0.521z"></path>
</symbol>
<symbol id="prod-4" viewBox="0 0 26 32">
<path d="M23.67 2.691h1.616c0.301 0 0.537-0.235 0.537-0.539v-1.079c0-0.002 0-0.004 0-0.006 0-0.293-0.238-0.531-0.531-0.531-0.002 0-0.004 0-0.006 0h-24.751c-0.002-0-0.005-0-0.008-0-0.293 0-0.531 0.238-0.531 0.531 0 0.002 0 0.004 0 0.006v-0 1.077c0 0.301 0.235 0.539 0.539 0.539h1.614c0 6.22 2.975 10.727 6.271 12.913-3.296 2.185-6.271 6.691-6.271 12.913h-1.614c-0.002-0-0.005-0-0.008-0-0.293 0-0.531 0.238-0.531 0.531 0 0.003 0 0.005 0 0.008v-0 1.077c0 0.301 0.235 0.539 0.539 0.539h24.751c0.301 0 0.537-0.235 0.537-0.539v-1.075c0-0.002 0-0.005 0-0.008 0-0.293-0.238-0.531-0.531-0.531-0.002 0-0.004 0-0.006 0h-1.616c0-6.222-2.976-10.729-6.271-12.913 3.296-2.186 6.271-6.693 6.271-12.913zM21.52 2.691c0 0.024 0 0.053 0 0.082 0 2.316-0.528 4.508-1.47 6.463l0.039-0.089h-14.356c-0.903-1.866-1.431-4.058-1.431-6.374 0-0.029 0-0.058 0-0.086l-0 0.004h17.22zM20.559 23.137h-15.297c1.243-3.245 3.48-5.55 5.716-6.458h3.868c2.235 0.908 4.473 3.213 5.717 6.458z"></path>
</symbol>
<symbol id="prod-3" viewBox="0 0 21 32">
<path d="M19.056 18.075l-17.218-17.218c-0.184-0.197-0.445-0.32-0.735-0.32-0.008 0-0.015 0-0.023 0l0.001-0c-0.146 0.002-0.284 0.033-0.41 0.087l0.007-0.003c-0.396 0.164-0.669 0.546-0.672 0.992v25.29c0 0.437 0.269 0.823 0.672 0.992 0.119 0.051 0.257 0.081 0.402 0.083h0.001c0.297-0.002 0.564-0.124 0.757-0.32l5.247-5.245 3.211 7.601c0.17 0.389 0.55 0.655 0.994 0.655 0.151 0 0.295-0.031 0.426-0.087l-0.007 0.003 2.976-1.262c0.389-0.169 0.657-0.551 0.657-0.994 0-0.151-0.031-0.295-0.087-0.425l0.003 0.007-3.379-8.004h6.422c0.447-0.003 0.828-0.277 0.99-0.665l0.003-0.007c0.054-0.121 0.085-0.262 0.085-0.411 0-0.294-0.123-0.56-0.32-0.749l-0-0z"></path>
</symbol>
<symbol id="prod-2" viewBox="0 0 41 32">
<path d="M21.679 12.9l2.675 1.246 3.978-1.184v-2.778c0-4.715-3.978-8.492-8.734-8.492-4.737 0-8.739 3.757-8.739 8.434v12.655c0 1.166-0.937 2.083-2.081 2.083s-2.083-0.919-2.083-2.081v-5.35h-6.697v5.428c0 4.836 3.921 8.757 8.757 8.757v0c4.799 0 8.757-3.857 8.757-8.633v-12.495c0-1.143 0.94-2.081 2.083-2.081s2.083 0.937 2.083 2.081v2.41zM32.499 17.432v5.613c0 1.143-0.937 2.062-2.081 2.062s-2.083-0.919-2.083-2.062v-5.51l-3.981 1.184-2.675-1.246v5.471c0 4.797 3.939 8.675 8.757 8.675 4.836 0 8.757-3.921 8.757-8.757v0-5.43h-6.694z"></path>
</symbol>
<symbol id="prod-1" viewBox="0 0 34 32">
<path d="M17.078 30.181c0.002 0 0.005 0 0.008 0 0.324 0 0.618-0.13 0.832-0.342l-0 0 11.873-11.438c0.171-0.171 4.366-4.003 4.366-8.577 0-5.584-3.411-8.917-9.111-8.917-3.334-0.002-6.462 2.626-7.967 4.114-1.505-1.486-4.632-4.114-7.967-4.114-5.7-0.002-9.111 3.33-9.111 8.917 0 4.575 4.193 8.407 4.346 8.539l11.893 11.474c0.228 0.228 0.534 0.342 0.839 0.342z"></path>
</symbol>
<symbol id="mob" viewBox="0 0 21 32">
<path d="M18.432 0h-15.516c-1.607 0-2.91 1.344-2.91 3v26.003c0 1.656 1.303 3 2.91 3h15.516c1.607 0 2.91-1.344 2.91-3v-26.003c0-1.656-1.303-3-2.91-3zM13.583 27.947c0 0.607-0.436 1.056-0.969 1.056h-3.934c-0.48 0-0.916-0.449-0.916-1s0.436-1 0.969-1h3.88c0.533 0 0.969 0.449 0.969 0.944zM17.461 24.003h-13.576v-20.002h13.577v20.002z"></path>
</symbol>
<symbol id="logo" viewBox="0 0 36 32">
<path fill="#02bc6b" style="fill: var(--color1, #02bc6b)" d="M2.785 30.328c-1.532 0-2.785-1.241-2.785-2.757v-9.639h7.010v-0.011h4.213c1.086-0.027 2.005-0.964 2.005-2.068 0-1.131-0.947-2.068-2.089-2.068l-11.14 0.002v-2.759c0-1.516 1.253-2.757 2.785-2.757h8.356c2.116 0 3.926 0.745 5.402 2.233 1.504 1.461 2.256 3.253 2.256 5.349 0 2.068-0.724 3.86-2.2 5.321s-3.259 2.234-5.347 2.261h-5.682v4.135c0 1.516-1.253 2.757-2.785 2.757z"></path>
<path fill="#02897a" style="fill: var(--color2, #02897a)" d="M22.309 5.071c3.076 2.959 4.627 6.644 4.627 10.833 0 4.118-1.485 7.799-4.516 10.767l-4.3-4.006c1.884-1.845 2.809-4.068 2.809-6.761 0-2.715-0.953-4.933-2.882-6.788l4.261-4.044z"></path>
<path fill="#035b81" style="fill: var(--color3, #035b81)" d="M28.893 0.005c4.432 4.38 6.662 9.812 6.662 16.045 0 6.137-2.14 11.564-6.5 15.955l-4.151-4.015c3.248-3.27 4.838-7.236 4.838-11.94 0-4.75-1.644-8.713-4.962-11.991l4.112-4.054z"></path>
<path fill="#028e37" style="fill: var(--color4, #028e37)" d="M0 23.459h5.57v4.113c0 1.516-1.253 2.756-2.785 2.756s-2.785-1.239-2.785-2.756v-4.113z"></path>
</symbol>
<symbol id="instagram" viewBox="0 0 32 32">
<path fill="none" stroke-linejoin="round" stroke-linecap="round" stroke-miterlimit="4" stroke-width="2.6667" d="M22.669 2.667h-13.335c-3.682 0-6.667 2.985-6.667 6.667v0 13.335c0 3.682 2.985 6.667 6.667 6.667v0h13.335c3.682 0 6.667-2.985 6.667-6.667v0-13.335c0-3.682-2.985-6.667-6.667-6.667v0z"></path>
<path fill="none" stroke-linejoin="round" stroke-linecap="round" stroke-miterlimit="4" stroke-width="2.6667" d="M21.336 15.162c0.043 0.253 0.067 0.545 0.067 0.843 0 2.946-2.388 5.334-5.334 5.334-2.691 0-4.917-1.993-5.282-4.584l-0.003-0.028c-0.031-0.217-0.049-0.467-0.049-0.721 0-2.946 2.388-5.334 5.334-5.334 2.648 0 4.846 1.93 5.263 4.46l0.004 0.031zM23.336 8.668h0.013"></path>
</symbol>
<symbol id="facebook" viewBox="0 0 32 32">
<path fill="none" stroke-linejoin="round" stroke-linecap="round" stroke-miterlimit="4" stroke-width="2.6667" d="M24.003 2.667h-4c-3.682 0-6.667 2.985-6.667 6.667v0 4h-4v5.334h4v10.668h5.334v-10.668h4l1.333-5.334h-5.334v-4c0-0.736 0.597-1.333 1.333-1.333v0h4v-5.334z"></path>
</symbol>
</defs>
</svg>
